<?xml version="1.0" encoding="UTF-8" standalone="no" ?>
<!DOCTYPE svg PUBLIC "-//W3C//DTD SVG 1.1//EN" "http://www.w3.org/Graphics/SVG/1.1/DTD/svg11.dtd">
<svg xmlns="http://www.w3.org/2000/svg" xmlns:xlink="http://www.w3.org/1999/xlink" version="1.1" width="1280" height="1024" viewBox="0 0 1280 1024" xml:space="preserve">
<desc>Created with Fabric.js 5.3.0</desc>
<defs>
</defs>
<g transform="matrix(1 0 0 1 640 512)" id="background-logo"  >
<rect style="stroke: none; stroke-width: 0; stroke-dasharray: none; stroke-linecap: butt; stroke-dashoffset: 0; stroke-linejoin: miter; stroke-miterlimit: 4; fill: rgb(255,255,255); fill-opacity: 0; fill-rule: nonzero; opacity: 1;"  paint-order="stroke"  x="-640" y="-512" rx="0" ry="0" width="1280" height="1024" />
</g>
<g transform="matrix(1.9211538461538462 0 0 1.9211538461538462 640 386.8441657634108)" id="logo-logo"  >
<g style=""  paint-order="stroke"   >
		<g transform="matrix(0.996372018130248 0 0 0.996372018130248 0 -2.842171e-14)"  >
<g style=""  paint-order="stroke"   >
		<g transform="matrix(1 0 0 1 0 0)"  >
<path style="stroke: none; stroke-width: 1; stroke-dasharray: none; stroke-linecap: butt; stroke-dashoffset: 0; stroke-linejoin: miter; stroke-miterlimit: 4; fill: rgb(128,198,244); fill-rule: nonzero; opacity: 1;"  paint-order="stroke"  transform=" translate(-100, -100)" d="M 100 0 C 44.771525016920656 0 0 44.771525016920656 0 100 C 0 155.22847498307934 44.771525016920656 200 100 200 C 155.22847498307934 200 200 155.22847498307934 200 100 C 200 44.771525016920656 155.22847498307934 0 100 0 Z M 100 196 C 46.98066401624383 196 4 153.01933598375618 4 100 C 4 46.98066401624382 46.98066401624383 4 100 4 C 153.01933598375618 4 196 46.98066401624379 196 99.99999999999997 C 196.01326533773167 125.46944498981716 185.90486509450383 149.9002677451139 167.89993478073086 167.91457562675862 C 149.8950044669579 185.92888350840335 125.4694484443322 196.05000345451532 100 196.05000000000004 Z M 100 7 C 62.35892948159733 7.016187092396458 28.43436755309712 29.706280160901727 14.046574617508824 64.48906133544207 C -0.3412183180794699 99.27184250998243 7.641473954877824 139.29674537773892 34.27203091319039 165.8986980858277 C 60.90258787150296 192.5006507939165 100.93604655094379 200.44032406550502 135.70334521162354 186.01515870657698 C 170.47064387230333 171.58999334764894 193.12426542597862 137.64106617754638 193.10000000000002 100 C 193.08674273774355 75.32160452628673 183.27057218910613 51.65923870237178 165.81093458285625 34.21835473479668 C 148.35129697660633 16.777470767221573 124.67839546988432 6.986735612098698 99.99999999999999 7.000000000000014 Z M 180.74 117.16 C 181.47 112.28999999999999 183.67000000000002 105.72999999999999 188.31 104.66 C 189.07 112.13 185 116.73 180.78 117.15 Z M 172.65 117.86 C 175.78 118.97 179.14000000000001 124.07 175.65 131.43 C 173.38 129.47 170.63 124.76 172.69 117.85 Z M 168.12 143.86 C 165.84 140.10000000000002 165.63 134.66000000000003 169.27 128.98000000000002 C 172.76 131.31 174.06 137.8 168.16 143.86 Z M 174.58 104.86000000000001 C 177.97 105.55000000000001 181.38000000000002 110.26000000000002 179.52 117.24000000000001 C 176.21 115.47 173.65 111.17 174.62 104.88 Z M 175.13000000000002 93.71000000000001 C 177.41000000000003 93.91000000000001 181.57000000000002 96.71000000000001 180.93000000000004 104.08000000000001 C 178.1 103.12 175 99.79 175.17 93.73 Z M 186.44 92 C 188.56 99 184.91 103.08 182.27 104 C 181.87 99.53 182.53 93.66 186.44 92 Z M 176.44 78.25 C 179.31 79.75 183.82 86.09 180.60999999999999 93.87 C 177.34 91.78 174.69 86 176.44 78.2 Z M 100 20.71 C 134.36689360095878 20.713691647234253 164.82829889334786 42.832215696829074 175.46999999999997 75.50999999999993 L 175.2 75.61999999999999 C 174.88818317975418 75.766947098301 174.60402436848614 75.9665348347869 174.35999999999999 76.21 C 163.99405930433431 44.121969994561695 134.2041666870895 22.31047752033527 100.48387687075302 22.119556494144092 C 66.76358705441655 21.928635467952915 36.72862312142985 43.40140537880515 26 75.37 C 25.61606697364098 75.3974516185268 25.24176939123848 75.50293548265842 24.9 75.68 L 24.49 75.91000000000001 C 34.990285345129905 43.05611729611335 65.50895335219818 20.746085856699104 99.99999999999997 20.709999999999994 Z M 156.38 156 C 155.38 152.3 156.43 146.29 162.25 141.59 C 165 145 163.86 151.82 156.38 156 Z M 142.06 164.58 Z M 60.55 164.58 Z M 46.23 156 C 38.75 151.8 37.62 144.94 40.36 141.59 C 46.18 146.31 47.24 152.32 46.23 156 Z M 28 104.88 C 29 111.17 26.41 115.47 23.06 117.25999999999999 C 21.18 110.28 24.6 105.57 28 104.88 Z M 21.65 104.1 C 21.009999999999998 96.77 25.159999999999997 93.92999999999999 27.45 93.72999999999999 C 27.65 99.79 24.51 103.12 21.64 104.1 Z M 29.93 117.85 C 31.99 124.75999999999999 29.24 129.47 26.93 131.42 C 23.43 124.06 26.79 119 29.92 117.85 Z M 33.3 129 C 36.94 134.68 36.73 140.12 34.449999999999996 143.88 C 28.55 137.8 29.85 131.31 33.3 129 Z M 26.17 78.2 C 27.92 86 25.27 91.78 22 93.82 C 18.79 86 23.3 79.7 26.17 78.2 Z M 16.17 92 C 20.080000000000002 93.71 20.740000000000002 99.58 20.340000000000003 104 C 17.7 103 14.05 99 16.17 92 Z M 14.260000000000002 104.7 C 18.900000000000002 105.77 21.1 112.33 21.830000000000002 117.2 C 17.64 116.73 13.54 112.13 14.26 104.65 Z M 25.720000000000002 131.98000000000002 C 25.274467592608023 131.9900729786286 24.829017111162262 131.95658046122668 24.39 131.88000000000002 C 19.23 131.05 16.14 125.88000000000002 16.12 119.81000000000003 C 21.11 120.43 24.19 127.12 25.72 131.93 Z M 19.470000000000002 134.57000000000002 C 24.880000000000003 133.92000000000002 30.470000000000002 140.15000000000003 33.67 144.51000000000002 C 28.79 146.51 21.63 142.83 19.47 134.52 Z M 29.230000000000004 149.95000000000002 C 34.59 148.25000000000003 41.31 153.39000000000001 45.34 157.25000000000003 C 41.07 159.92 33.39 158.18 29.23 149.9 Z M 56 167.56 C 50.7 170.76 44.47 168.56 39.82 163.63 C 44.51 160.45 52.26 163.63 57.22 166.63 C 56.8477617408528 166.9827370464114 56.43875471053201 167.29452109411494 56 167.56 Z M 57.76 164.45 C 57.73913762709167 164.95446819021024 57.67557703557941 165.4562623337281 57.57 165.95 C 49.03 161.26999999999998 48.94 154.41 50.79 151.48999999999998 C 55.19 154.75 58 158.94 57.71 164.45 Z M 100 179.38 C 85.7401547348011 179.40026851579225 71.74110901580313 175.55752873807668 59.49000000000001 168.26 C 59.6421884625951 168.03895372932777 59.76018113890248 167.79622593806687 59.84 167.54 C 59.92631608207358 167.40897489327722 60.00317772636634 167.27196065779881 60.07 167.13 C 85.4756773481421 182.2418900361712 117.23515917834905 181.71940282594966 142.13000000000002 165.77999999999997 C 142.16366868220902 166.0626718488874 142.21375329061578 166.34314565596534 142.28 166.62 C 142.32279982261164 166.77679675933342 142.3762575212137 166.9304876428143 142.44 167.08 C 129.75310930899343 175.137433508392 115.02926543406221 179.40471154000494 100 179.38 Z M 144.86 164.45 C 144.56 158.94 147.38000000000002 154.75 151.86 151.45 C 153.71 154.36999999999998 153.62 161.23 145.08 165.91 C 144.97999401697933 165.42910449480385 144.91979025784386 164.94078511514945 144.9 164.45 Z M 146.61 167.56 C 146.17717615339652 167.30566894404 145.7717027981758 167.00742821168757 145.4 166.67000000000002 C 150.4 163.67000000000002 158.11 160.45000000000002 162.8 163.67000000000002 C 158.19 168.56 152 170.76 146.65 167.56 Z M 157.23000000000002 157.2 C 161.23000000000002 153.33999999999997 167.98000000000002 148.2 173.34000000000003 149.89999999999998 C 169.22 158.18 161.54 159.92 157.27 157.2 Z M 168.9 144.45999999999998 C 172.12 140.09999999999997 177.69 133.86999999999998 183.1 134.51999999999998 C 181 142.83 173.82 146.51 168.94 144.46 Z M 178.18 131.82999999999998 C 177.74098288883775 131.90658046122664 177.295532407392 131.94007297862856 176.85 131.92999999999998 C 178.38 127.11999999999998 181.46 120.42999999999998 186.44 119.75999999999998 C 186.47 125.81 183.38 131 178.22 131.83 Z" stroke-linecap="round" />
</g>
</g>
</g>
		<g transform="matrix(0.1372984806174535 0 0 0.1372984806174535 1.3094008516989106 -52.45214266179448)"  >
<g style=""  paint-order="stroke"   >
		<g transform="matrix(1 0 0 1 0 0)"  >
<polygon style="stroke: none; stroke-width: 1; stroke-dasharray: none; stroke-linecap: butt; stroke-dashoffset: 0; stroke-linejoin: miter; stroke-miterlimit: 4; fill: rgb(44,160,237); fill-rule: nonzero; opacity: 1;"  paint-order="stroke"  points="100,-22.430000000000007 30.900000000000006,-32.46 0,-95 -30.900000000000006,-32.46 -100,-22.430000000000007 -50,26.260000000000005 -61.8,95 0,62.55000000000001 61.80000000000001,95 50,26.260000000000005 100,-22.430000000000007 " />
</g>
</g>
</g>
		<g transform="matrix(0.1372984806174535 0 0 0.1372984806174535 -1.4603550106136822 -52.45214266179448)"  >
<g style=""  paint-order="stroke"   >
		<g transform="matrix(1 0 0 1 0 0)"  >
<polygon style="stroke: none; stroke-width: 1; stroke-dasharray: none; stroke-linecap: butt; stroke-dashoffset: 0; stroke-linejoin: miter; stroke-miterlimit: 4; fill: rgb(255,255,255); fill-rule: nonzero; opacity: 1;"  paint-order="stroke"  points="100,-22.430000000000007 30.900000000000006,-32.46 0,-95 -30.900000000000006,-32.46 -100,-22.430000000000007 -50,26.260000000000005 -61.8,95 0,62.55000000000001 61.80000000000001,95 50,26.260000000000005 100,-22.430000000000007 " />
</g>
</g>
</g>
</g>
</g>
<g transform="matrix(1.9211538461538462 0 0 1.9211538461538462 641.6709235576923 687.7630018983854)" id="text-logo"  >
<g style=""  paint-order="stroke"   >
		<g transform="matrix(1 0 0 1 0 0)" id="text-logo-path-0"  >
<path style="stroke: rgb(255,255,255); stroke-width: 0; stroke-dasharray: none; stroke-linecap: butt; stroke-dashoffset: 0; stroke-linejoin: miter; stroke-miterlimit: 4; fill: rgb(128,198,244); fill-rule: nonzero; opacity: 1;"  paint-order="stroke"  transform=" translate(-294.37000000000006, 24.78)" d="M 2.27 -48.85 C 3.48 -48.85 4.83 -48 4.83 -46.01 L 4.83 -3.55 C 4.83 -1.56 3.48 -0.71 2.27 -0.71 C 2.13 -0.71 1.92 -0.64 1.92 -0.36 C 1.92 -0.07 2.13 0 2.27 0 L 35.78 0 L 35.78 -5.4 C 35.78 -5.54 35.71 -5.75 35.43 -5.75 C 35.15 -5.75 35.07 -5.54 35.07 -5.4 C 35.07 -4.19 34.22 -2.84 32.23 -2.84 L 14.7 -2.84 L 14.7 -24.85 L 23.71 -24.85 C 25.7 -24.85 26.55 -23.5 26.55 -22.29 C 26.55 -22.15 26.63 -21.94 26.91 -21.94 C 27.19 -21.94 27.26 -22.15 27.26 -22.29 L 27.26 -30.25 C 27.26 -30.39 27.19 -30.6 26.91 -30.6 C 26.63 -30.6 26.55 -30.39 26.55 -30.25 C 26.55 -29.04 25.7 -27.69 23.71 -27.69 L 14.7 -27.69 L 14.7 -46.72 L 30.81 -46.72 C 32.8 -46.72 33.65 -45.37 33.65 -44.16 C 33.65 -44.02 33.73 -43.81 34.01 -43.81 C 34.29 -43.81 34.36 -44.02 34.36 -44.16 L 34.36 -49.56 L 2.27 -49.56 C 2.13 -49.56 1.92 -49.49 1.92 -49.2 C 1.92 -48.92 2.13 -48.85 2.27 -48.85 Z M 42.1 -46.43 L 53.68 -24.57 L 41.25 -3.05 C 40.26 -1.35 38.13 -0.71 36.92 -0.71 C 36.78 -0.71 36.57 -0.64 36.57 -0.36 C 36.57 -0.07 36.78 0 36.92 0 L 45.58 0 C 45.72 0 45.94 -0.07 45.94 -0.36 C 45.94 -0.64 45.72 -0.71 45.58 -0.71 C 44.38 -0.71 43.81 -1.35 44.8 -3.05 L 55.38 -21.3 L 65.04 -3.12 C 65.96 -1.35 65.32 -0.71 64.11 -0.71 C 63.97 -0.71 63.76 -0.64 63.76 -0.36 C 63.76 -0.07 63.97 0 64.11 0 L 79.8 0 C 79.95 0 80.16 -0.07 80.16 -0.36 C 80.16 -0.64 79.95 -0.71 79.8 -0.71 C 78.6 -0.71 76.54 -1.35 75.62 -3.12 L 62.2 -28.54 L 72.63 -46.51 C 73.63 -48.21 75.76 -48.85 76.96 -48.85 C 77.11 -48.85 77.32 -48.92 77.32 -49.2 C 77.32 -49.49 77.11 -49.56 76.96 -49.56 L 68.37 -49.56 C 68.23 -49.56 68.02 -49.49 68.02 -49.2 C 68.02 -48.92 68.23 -48.85 68.37 -48.85 C 69.58 -48.85 70.15 -48.21 69.15 -46.51 L 60.49 -31.74 L 52.68 -46.43 C 51.76 -48.21 52.4 -48.85 53.61 -48.85 C 53.75 -48.85 53.96 -48.92 53.96 -49.2 C 53.96 -49.49 53.75 -49.56 53.61 -49.56 L 37.91 -49.56 C 37.77 -49.56 37.56 -49.49 37.56 -49.2 C 37.56 -48.92 37.77 -48.85 37.91 -48.85 C 39.12 -48.85 41.18 -48.21 42.1 -46.43 Z M 84.85 -46.01 L 84.85 -3.55 C 84.85 -1.56 83.5 -0.71 82.29 -0.71 C 82.15 -0.71 81.93 -0.64 81.93 -0.36 C 81.93 -0.07 82.15 0 82.29 0 L 97.27 0 C 97.41 0 97.63 -0.07 97.63 -0.36 C 97.63 -0.64 97.41 -0.71 97.27 -0.71 C 96.06 -0.71 94.71 -1.56 94.71 -3.55 L 94.71 -19.17 L 100.25 -19.17 C 114.1 -19.17 121.27 -23.71 121.27 -34.44 C 121.27 -44.59 114.52 -49.56 100.25 -49.56 L 82.29 -49.56 C 82.15 -49.56 81.93 -49.49 81.93 -49.2 C 81.93 -48.92 82.15 -48.85 82.29 -48.85 C 83.5 -48.85 84.85 -48 84.85 -46.01 Z M 94.71 -22.01 L 94.71 -46.72 L 100.25 -46.72 C 106.86 -46.72 110.69 -43.03 110.69 -34.44 C 110.69 -26.06 107.14 -22.01 100.25 -22.01 Z M 124.75 -48.85 C 125.95 -48.85 127.3 -48 127.3 -46.01 L 127.3 -3.55 C 127.3 -1.56 125.95 -0.71 124.75 -0.71 C 124.61 -0.71 124.39 -0.64 124.39 -0.36 C 124.39 -0.07 124.61 0 124.75 0 L 158.26 0 L 158.26 -5.4 C 158.26 -5.54 158.19 -5.75 157.9 -5.75 C 157.62 -5.75 157.55 -5.54 157.55 -5.4 C 157.55 -4.19 156.7 -2.84 154.71 -2.84 L 137.17 -2.84 L 137.17 -24.85 L 146.19 -24.85 C 148.18 -24.85 149.03 -23.5 149.03 -22.29 C 149.03 -22.15 149.1 -21.94 149.38 -21.94 C 149.67 -21.94 149.74 -22.15 149.74 -22.29 L 149.74 -30.25 C 149.74 -30.39 149.67 -30.6 149.38 -30.6 C 149.1 -30.6 149.03 -30.39 149.03 -30.25 C 149.03 -29.04 148.18 -27.69 146.19 -27.69 L 137.17 -27.69 L 137.17 -46.72 L 153.29 -46.72 C 155.28 -46.72 156.13 -45.37 156.13 -44.16 C 156.13 -44.02 156.2 -43.81 156.48 -43.81 C 156.77 -43.81 156.84 -44.02 156.84 -44.16 L 156.84 -49.56 L 124.75 -49.56 C 124.61 -49.56 124.39 -49.49 124.39 -49.2 C 124.39 -48.92 124.61 -48.85 124.75 -48.85 Z M 161.38 -48.85 C 162.59 -48.85 163.94 -48 163.94 -46.01 L 163.94 -3.55 C 163.94 -1.56 162.59 -0.71 161.38 -0.71 C 161.24 -0.71 161.03 -0.64 161.03 -0.36 C 161.03 -0.07 161.24 0 161.38 0 L 169.34 0 C 169.48 0 169.69 -0.07 169.69 -0.36 C 169.69 -0.64 169.48 -0.71 169.34 -0.71 C 168.13 -0.71 166.78 -1.56 166.78 -3.55 L 166.78 -43.67 L 192.98 0 L 198.59 0 L 198.59 -46.01 C 198.59 -48 199.94 -48.85 201.14 -48.85 C 201.29 -48.85 201.5 -48.92 201.5 -49.2 C 201.5 -49.49 201.29 -49.56 201.14 -49.56 L 193.26 -49.56 C 193.12 -49.56 192.91 -49.49 192.91 -49.2 C 192.91 -48.92 193.12 -48.85 193.26 -48.85 C 194.47 -48.85 195.82 -48 195.82 -46.01 L 195.82 -14.2 L 174.52 -49.56 L 161.38 -49.56 C 161.24 -49.56 161.03 -49.49 161.03 -49.2 C 161.03 -48.92 161.24 -48.85 161.38 -48.85 Z M 207.11 -9.16 L 204.76 -7.03 C 208.74 -1.99 214.63 0.71 221.8 0.71 C 230.25 0.71 239.98 -4.69 239.98 -12.85 C 239.98 -21.02 233.24 -24.99 226.63 -28.47 C 220.6 -31.67 214.78 -34.51 214.78 -39.83 C 214.78 -43.81 217.83 -47.43 223.08 -47.43 C 228.27 -47.43 229.05 -44.8 227.98 -43.17 C 227.06 -41.82 226.56 -40.61 226.56 -39.12 C 226.56 -35.93 229.19 -33.37 232.45 -33.37 C 235.72 -33.37 238.28 -35.93 238.28 -39.62 C 238.28 -45.58 233.31 -50.27 223.3 -50.27 C 215.27 -50.27 205.76 -46.93 205.76 -36.92 C 205.76 -29.25 212.86 -25.21 219.6 -21.58 C 225.99 -18.25 232.17 -15.19 232.17 -9.94 C 232.17 -4.76 225.57 -2.13 220.17 -2.13 C 215.27 -2.13 210.44 -4.54 207.11 -9.16 Z M 244.17 -48.85 C 245.38 -48.85 246.73 -48 246.73 -46.01 L 246.73 -3.55 C 246.73 -1.56 245.38 -0.71 244.17 -0.71 C 244.03 -0.71 243.81 -0.64 243.81 -0.36 C 243.81 -0.07 244.03 0 244.17 0 L 277.68 0 L 277.68 -5.4 C 277.68 -5.54 277.61 -5.75 277.33 -5.75 C 277.04 -5.75 276.97 -5.54 276.97 -5.4 C 276.97 -4.19 276.12 -2.84 274.13 -2.84 L 256.59 -2.84 L 256.59 -24.85 L 265.61 -24.85 C 267.6 -24.85 268.45 -23.5 268.45 -22.29 C 268.45 -22.15 268.52 -21.94 268.81 -21.94 C 269.09 -21.94 269.16 -22.15 269.16 -22.29 L 269.16 -30.25 C 269.16 -30.39 269.09 -30.6 268.81 -30.6 C 268.52 -30.6 268.45 -30.39 268.45 -30.25 C 268.45 -29.04 267.6 -27.69 265.61 -27.69 L 256.59 -27.69 L 256.59 -46.72 L 272.71 -46.72 C 274.7 -46.72 275.55 -45.37 275.55 -44.16 C 275.55 -44.02 275.62 -43.81 275.91 -43.81 C 276.19 -43.81 276.26 -44.02 276.26 -44.16 L 276.26 -49.56 L 244.17 -49.56 C 244.03 -49.56 243.81 -49.49 243.81 -49.2 C 243.81 -48.92 244.03 -48.85 244.17 -48.85 Z M 332.56 -44.16 L 332.56 -49.56 L 296.21 -49.56 L 296.21 -44.16 C 296.21 -44.02 296.28 -43.81 296.57 -43.81 C 296.85 -43.81 296.92 -44.02 296.92 -44.16 C 296.92 -45.37 297.77 -46.72 299.76 -46.72 L 309.42 -46.72 L 309.42 -3.55 C 309.42 -1.56 308.14 -0.71 306.93 -0.71 C 306.79 -0.71 306.58 -0.64 306.58 -0.36 C 306.58 -0.07 306.79 0 306.93 0 L 321.91 0 C 322.06 0 322.27 -0.07 322.27 -0.36 C 322.27 -0.64 322.06 -0.71 321.91 -0.71 C 320.71 -0.71 319.36 -1.56 319.36 -3.55 L 319.36 -46.72 L 329.09 -46.72 C 331.07 -46.72 331.93 -45.37 331.93 -44.16 C 331.93 -44.02 331.93 -43.81 332.21 -43.81 C 332.49 -43.81 332.56 -44.02 332.56 -44.16 Z M 337.39 -46.01 L 337.39 -3.55 C 337.39 -1.56 336.04 -0.71 334.84 -0.71 C 334.69 -0.71 334.48 -0.64 334.48 -0.36 C 334.48 -0.07 334.69 0 334.84 0 L 349.82 0 C 349.96 0 350.17 -0.07 350.17 -0.36 C 350.17 -0.64 349.96 -0.71 349.82 -0.71 C 348.61 -0.71 347.26 -1.56 347.26 -3.55 L 347.26 -19.17 L 352.09 -19.17 C 352.94 -19.17 353.79 -19.17 354.65 -19.24 L 362.74 -3.2 C 363.59 -1.42 362.95 -0.71 361.75 -0.71 C 361.6 -0.71 361.39 -0.64 361.39 -0.36 C 361.39 -0.07 361.6 0 361.75 0 L 376.73 0 C 376.87 0 377.08 -0.07 377.08 -0.36 C 377.08 -0.64 376.87 -0.71 376.73 -0.71 C 375.52 -0.71 373.46 -1.42 372.61 -3.2 L 363.8 -20.8 C 369.98 -22.93 373.11 -27.34 373.11 -34.44 C 373.11 -44.59 366.36 -49.56 352.09 -49.56 L 334.84 -49.56 C 334.69 -49.56 334.48 -49.49 334.48 -49.2 C 334.48 -48.92 334.69 -48.85 334.84 -48.85 C 336.04 -48.85 337.39 -48 337.39 -46.01 Z M 347.26 -22.01 L 347.26 -46.72 L 352.09 -46.72 C 358.69 -46.72 362.53 -43.03 362.53 -34.44 C 362.53 -26.06 358.98 -22.01 352.09 -22.01 Z M 420.04 -3.34 L 404.2 -49.56 L 397.1 -49.56 L 381.27 -3.34 C 380.63 -1.49 378.79 -0.71 377.58 -0.71 C 377.44 -0.71 377.22 -0.64 377.22 -0.36 C 377.22 -0.07 377.44 0 377.58 0 L 386.24 0 C 386.38 0 386.6 -0.07 386.6 -0.36 C 386.6 -0.64 386.38 -0.71 386.24 -0.71 C 385.03 -0.71 384.18 -1.49 384.82 -3.34 L 388.3 -13.42 L 406.62 -13.42 L 410.17 -3.34 C 410.81 -1.49 409.95 -0.71 408.75 -0.71 C 408.61 -0.71 408.39 -0.64 408.39 -0.36 C 408.39 -0.07 408.61 0 408.75 0 L 423.73 0 C 423.87 0 424.08 -0.07 424.08 -0.36 C 424.08 -0.64 423.87 -0.71 423.73 -0.71 C 422.52 -0.71 420.68 -1.49 420.04 -3.34 Z M 389.22 -16.26 L 397.32 -39.9 L 405.62 -16.26 Z M 444.67 0.71 C 451.92 0.71 457.81 -1.99 461.71 -7.03 L 459.37 -9.16 C 456.1 -4.54 451.28 -2.13 446.31 -2.13 C 437.36 -2.13 432.75 -9.44 432.75 -24.85 C 432.75 -39.62 437.01 -47.43 446.31 -47.43 C 450 -47.43 449.86 -44.8 448.79 -43.17 C 447.87 -41.82 447.37 -40.61 447.37 -39.12 C 447.37 -35.93 450 -33.37 453.26 -33.37 C 456.53 -33.37 459.02 -35.93 459.02 -39.62 C 459.02 -45.58 454.54 -50.27 445.6 -50.27 C 430.97 -50.27 422.1 -40.9 422.1 -24.85 C 422.1 -9.37 430.47 0.71 444.67 0.71 Z M 464.27 -48.85 C 465.48 -48.85 466.83 -48 466.83 -46.01 L 466.83 -3.55 C 466.83 -1.56 465.48 -0.71 464.27 -0.71 C 464.13 -0.71 463.91 -0.64 463.91 -0.36 C 463.91 -0.07 464.13 0 464.27 0 L 479.25 0 C 479.39 0 479.61 -0.07 479.61 -0.36 C 479.61 -0.64 479.39 -0.71 479.25 -0.71 C 478.04 -0.71 476.69 -1.56 476.69 -3.55 L 476.69 -18.67 L 480.53 -24 L 491.39 -3.12 C 492.31 -1.42 491.68 -0.71 490.47 -0.71 C 490.33 -0.71 490.11 -0.64 490.11 -0.36 C 490.11 -0.07 490.33 0 490.47 0 L 505.45 0 C 505.59 0 505.8 -0.07 505.8 -0.36 C 505.8 -0.64 505.59 -0.71 505.45 -0.71 C 504.24 -0.71 502.18 -1.42 501.26 -3.12 L 486.35 -31.88 L 497.28 -46.72 C 498.49 -48.28 500.69 -48.85 501.9 -48.85 C 502.04 -48.85 502.25 -48.92 502.25 -49.2 C 502.25 -49.49 502.04 -49.56 501.9 -49.56 L 493.31 -49.56 C 493.17 -49.56 492.95 -49.49 492.95 -49.2 C 492.95 -48.92 493.17 -48.85 493.31 -48.85 C 494.52 -48.85 494.94 -48.28 493.73 -46.72 L 476.69 -23.57 L 476.69 -46.01 C 476.69 -48 478.04 -48.85 479.25 -48.85 C 479.39 -48.85 479.61 -48.92 479.61 -49.2 C 479.61 -49.49 479.39 -49.56 479.25 -49.56 L 464.27 -49.56 C 464.13 -49.56 463.91 -49.49 463.91 -49.2 C 463.91 -48.92 464.13 -48.85 464.27 -48.85 Z M 507.93 -48.85 C 509.14 -48.85 510.49 -48 510.49 -46.01 L 510.49 -3.55 C 510.49 -1.56 509.14 -0.71 507.93 -0.71 C 507.79 -0.71 507.58 -0.64 507.58 -0.36 C 507.58 -0.07 507.79 0 507.93 0 L 541.45 0 L 541.45 -5.4 C 541.45 -5.54 541.38 -5.75 541.09 -5.75 C 540.81 -5.75 540.74 -5.54 540.74 -5.4 C 540.74 -4.19 539.88 -2.84 537.9 -2.84 L 520.36 -2.84 L 520.36 -24.85 L 529.38 -24.85 C 531.36 -24.85 532.22 -23.5 532.22 -22.29 C 532.22 -22.15 532.29 -21.94 532.57 -21.94 C 532.86 -21.94 532.93 -22.15 532.93 -22.29 L 532.93 -30.25 C 532.93 -30.39 532.86 -30.6 532.57 -30.6 C 532.29 -30.6 532.22 -30.39 532.22 -30.25 C 532.22 -29.04 531.36 -27.69 529.38 -27.69 L 520.36 -27.69 L 520.36 -46.72 L 536.48 -46.72 C 538.46 -46.72 539.32 -45.37 539.32 -44.16 C 539.32 -44.02 539.39 -43.81 539.67 -43.81 C 539.96 -43.81 540.03 -44.02 540.03 -44.16 L 540.03 -49.56 L 507.93 -49.56 C 507.79 -49.56 507.58 -49.49 507.58 -49.2 C 507.58 -48.92 507.79 -48.85 507.93 -48.85 Z M 547.13 -46.01 L 547.13 -3.55 C 547.13 -1.56 545.78 -0.71 544.57 -0.71 C 544.43 -0.71 544.22 -0.64 544.22 -0.36 C 544.22 -0.07 544.43 0 544.57 0 L 559.55 0 C 559.69 0 559.91 -0.07 559.91 -0.36 C 559.91 -0.64 559.69 -0.71 559.55 -0.71 C 558.34 -0.71 557 -1.56 557 -3.55 L 557 -19.17 L 561.82 -19.17 C 562.67 -19.17 563.53 -19.17 564.38 -19.24 L 572.47 -3.2 C 573.33 -1.42 572.69 -0.71 571.48 -0.71 C 571.34 -0.71 571.12 -0.64 571.12 -0.36 C 571.12 -0.07 571.34 0 571.48 0 L 586.46 0 C 586.6 0 586.82 -0.07 586.82 -0.36 C 586.82 -0.64 586.6 -0.71 586.46 -0.71 C 585.25 -0.71 583.19 -1.42 582.34 -3.2 L 573.54 -20.8 C 579.72 -22.93 582.84 -27.34 582.84 -34.44 C 582.84 -44.59 576.09 -49.56 561.82 -49.56 L 544.57 -49.56 C 544.43 -49.56 544.22 -49.49 544.22 -49.2 C 544.22 -48.92 544.43 -48.85 544.57 -48.85 C 545.78 -48.85 547.13 -48 547.13 -46.01 Z M 557 -22.01 L 557 -46.72 L 561.82 -46.72 C 568.43 -46.72 572.26 -43.03 572.26 -34.44 C 572.26 -26.06 568.71 -22.01 561.82 -22.01 Z" stroke-linecap="round" />
</g>
</g>
</g>
<g transform="matrix(1.9211538461538462 0 0 1.9211538461538462 640.2305384615385 794.0974456291547)" id="tagline-75710e28-465e-4fa2-98a7-33268841d840-logo"  >
<g style=""  paint-order="stroke"   >
		<g transform="matrix(1 0 0 1 0 0)" id="tagline-75710e28-465e-4fa2-98a7-33268841d840-logo-path-0"  >
<path style="stroke: none; stroke-width: 0; stroke-dasharray: none; stroke-linecap: butt; stroke-dashoffset: 0; stroke-linejoin: miter; stroke-miterlimit: 4; fill: rgb(128,198,244); fill-rule: nonzero; opacity: 1;"  paint-order="stroke"  transform=" translate(-230.67, 10.44)" d="M 2.64 -18.27 L 2.64 -2.73 C 2.64 -0.78 1.65 -0.42 0.66 0 L 7.62 0 C 6.63 -0.42 5.64 -0.78 5.64 -2.73 L 5.64 -7.38 L 6.93 -9.18 L 11.61 -2.25 C 12.69 -0.66 12.15 -0.42 11.16 0 L 18.42 0 C 17.43 -0.42 16.02 -0.66 14.94 -2.28 L 8.67 -11.64 L 13.74 -18.78 C 14.88 -20.37 16.32 -20.58 17.31 -21 L 12.66 -21 C 13.65 -20.58 14.19 -20.37 13.05 -18.78 L 5.64 -8.34 L 5.64 -18.27 C 5.64 -20.22 6.63 -20.58 7.62 -21 L 0.66 -21 C 1.65 -20.58 2.64 -20.22 2.64 -18.27 Z M 33.72 -18.27 L 33.72 -2.73 C 33.72 -0.78 32.73 -0.42 31.74 0 L 36.3 0 C 35.31 -0.42 34.32 -0.78 34.32 -2.73 L 34.32 -19.17 L 46.92 0 L 48.12 0 L 48.12 -18.27 C 48.12 -20.22 49.11 -20.58 50.1 -21 L 45.54 -21 C 46.53 -20.58 47.52 -20.22 47.52 -18.27 L 47.52 -4.59 L 36.72 -21 L 31.74 -21 C 32.73 -20.58 33.72 -20.22 33.72 -18.27 Z M 73.44 0.27 C 79.14 0.27 83.43 -4.11 83.43 -10.53 C 83.43 -16.71 79.41 -21.3 73.44 -21.3 C 67.71 -21.3 63.42 -16.95 63.42 -10.53 C 63.42 -4.32 67.44 0.27 73.44 0.27 Z M 66.57 -10.53 C 66.57 -16.59 69.51 -20.7 73.44 -20.7 C 77.52 -20.7 80.28 -16.38 80.28 -10.53 C 80.28 -4.47 77.34 -0.33 73.44 -0.33 C 69.33 -0.33 66.57 -4.65 66.57 -10.53 Z M 105.63 0 L 109.44 -11.31 L 113.88 0 L 114.63 0 L 120.81 -18.42 C 121.44 -20.25 122.67 -20.58 123.66 -21 L 119.1 -21 C 120.09 -20.58 120.84 -20.25 120.21 -18.42 L 115.41 -4.11 L 110.88 -15.66 L 111.81 -18.42 C 112.44 -20.25 113.67 -20.58 114.66 -21 L 110.1 -21 C 111.09 -20.58 111.84 -20.25 111.21 -18.42 L 110.55 -16.47 L 109.74 -18.54 C 109.08 -20.25 107.94 -21 106.14 -21 L 103.65 -21 C 104.64 -20.58 105.93 -20.28 106.62 -18.45 L 109.11 -12.15 L 106.41 -4.11 L 100.74 -18.54 C 100.08 -20.25 98.94 -21 97.14 -21 L 94.65 -21 C 95.64 -20.58 96.93 -20.28 97.62 -18.45 L 104.88 0 Z M 156.96 -18.27 L 156.96 -2.73 C 156.96 -0.78 155.97 -0.42 154.98 0 L 169.35 0 L 171.06 -3.42 C 169.77 -2.31 168.39 -0.6 165.27 -0.6 L 159.96 -0.6 L 159.96 -10.2 L 163.92 -10.2 C 165.87 -10.2 166.23 -9.21 166.65 -8.22 L 166.65 -12.78 C 166.23 -11.79 165.87 -10.8 163.92 -10.8 L 159.96 -10.8 L 159.96 -20.4 L 165.57 -20.4 C 168.48 -20.4 169.02 -18.93 169.65 -17.43 L 169.65 -21 L 154.98 -21 C 155.97 -20.58 156.96 -20.22 156.96 -18.27 Z M 194.46 0 L 200.64 -18.42 C 201.27 -20.25 202.5 -20.58 203.49 -21 L 198.93 -21 C 199.92 -20.58 200.67 -20.25 200.04 -18.42 L 195.24 -4.11 L 189.57 -18.54 C 188.91 -20.25 187.77 -21 185.97 -21 L 183.48 -21 C 184.47 -20.58 185.76 -20.28 186.45 -18.45 L 193.71 0 Z M 218.79 -18.27 L 218.79 -2.73 C 218.79 -0.78 217.8 -0.42 216.81 0 L 231.18 0 L 232.89 -3.42 C 231.6 -2.31 230.22 -0.6 227.1 -0.6 L 221.79 -0.6 L 221.79 -10.2 L 225.75 -10.2 C 227.7 -10.2 228.06 -9.21 228.48 -8.22 L 228.48 -12.78 C 228.06 -11.79 227.7 -10.8 225.75 -10.8 L 221.79 -10.8 L 221.79 -20.4 L 227.4 -20.4 C 230.31 -20.4 230.85 -18.93 231.48 -17.43 L 231.48 -21 L 216.81 -21 C 217.8 -20.58 218.79 -20.22 218.79 -18.27 Z M 248.19 -18.27 L 248.19 -2.73 C 248.19 -0.78 247.2 -0.42 246.21 0 L 253.17 0 C 252.18 -0.42 251.19 -0.78 251.19 -2.73 L 251.19 -6.96 C 251.91 -7.23 252.69 -7.5 253.44 -7.77 L 257.16 -2.25 C 258.24 -0.66 257.7 -0.42 256.71 0 L 263.97 0 C 262.98 -0.42 261.57 -0.66 260.49 -2.28 L 256.08 -8.85 C 258.93 -10.2 261.24 -12.03 261.24 -15.24 C 261.24 -18.54 258.03 -21 253.53 -21 L 246.21 -21 C 247.2 -20.58 248.19 -20.22 248.19 -18.27 Z M 251.19 -7.89 L 251.19 -20.4 L 253.53 -20.4 C 256.2 -20.4 258.09 -18.66 258.09 -15.24 C 258.09 -10.59 254.79 -9.21 251.19 -7.89 Z M 276.9 -18.57 L 281.97 -8.49 L 281.97 -2.73 C 281.97 -0.78 280.98 -0.42 279.99 0 L 286.95 0 C 285.96 -0.42 284.97 -0.78 284.97 -2.73 L 284.97 -8.25 L 290.16 -18.57 C 291.03 -20.31 292.38 -20.58 293.37 -21 L 288.66 -21 C 289.65 -20.58 290.28 -20.31 289.41 -18.57 L 284.79 -9.33 L 280.11 -18.72 C 279.33 -20.31 278.19 -21 276.42 -21 L 273.69 -21 C 274.68 -20.58 276.03 -20.31 276.9 -18.57 Z M 326.67 -18.27 L 326.67 -2.73 C 326.67 -0.78 325.68 -0.42 324.69 0 L 331.65 0 C 330.66 -0.42 329.67 -0.78 329.67 -2.73 L 329.67 -6.96 C 330.39 -7.23 331.17 -7.5 331.92 -7.77 L 335.64 -2.25 C 336.72 -0.66 336.18 -0.42 335.19 0 L 342.45 0 C 341.46 -0.42 340.05 -0.66 338.97 -2.28 L 334.56 -8.85 C 337.41 -10.2 339.72 -12.03 339.72 -15.24 C 339.72 -18.54 336.51 -21 332.01 -21 L 324.69 -21 C 325.68 -20.58 326.67 -20.22 326.67 -18.27 Z M 329.67 -7.89 L 329.67 -20.4 L 332.01 -20.4 C 334.68 -20.4 336.57 -18.66 336.57 -15.24 C 336.57 -10.59 333.27 -9.21 329.67 -7.89 Z M 356.55 -18.27 L 356.55 -6.54 C 356.55 -2.37 359.43 0.42 364.71 0.42 C 368.97 0.42 371.55 -2.04 371.55 -6.54 L 371.55 -18.27 C 371.55 -20.22 372.54 -20.58 373.53 -21 L 368.97 -21 C 369.96 -20.58 370.95 -20.22 370.95 -18.27 L 370.95 -6.54 C 370.95 -2.31 368.7 -0.18 364.71 -0.18 C 361.41 -0.18 359.55 -2.16 359.55 -6.54 L 359.55 -18.27 C 359.55 -20.22 360.54 -20.58 361.53 -21 L 354.57 -21 C 355.56 -20.58 356.55 -20.22 356.55 -18.27 Z M 388.83 -18.27 L 388.83 -2.73 C 388.83 -0.78 387.84 -0.42 386.85 0 L 393.81 0 C 392.82 -0.42 391.83 -0.78 391.83 -2.73 L 391.83 -6.96 C 396.39 -8.61 401.88 -10.29 401.88 -15.24 C 401.88 -18.54 398.67 -21 394.17 -21 L 386.85 -21 C 387.84 -20.58 388.83 -20.22 388.83 -18.27 Z M 391.83 -7.89 L 391.83 -20.4 L 394.17 -20.4 C 396.84 -20.4 398.73 -18.66 398.73 -15.24 C 398.73 -10.59 395.43 -9.21 391.83 -7.89 Z M 417.18 -18.27 L 417.18 -2.73 C 417.18 -0.78 416.19 -0.42 415.2 0 L 429.57 0 L 431.28 -3.42 C 429.99 -2.31 428.61 -0.6 425.49 -0.6 L 420.18 -0.6 L 420.18 -10.2 L 424.14 -10.2 C 426.09 -10.2 426.45 -9.21 426.87 -8.22 L 426.87 -12.78 C 426.45 -11.79 426.09 -10.8 424.14 -10.8 L 420.18 -10.8 L 420.18 -20.4 L 425.79 -20.4 C 428.7 -20.4 429.24 -18.93 429.87 -17.43 L 429.87 -21 L 415.2 -21 C 416.19 -20.58 417.18 -20.22 417.18 -18.27 Z M 446.58 -18.27 L 446.58 -2.73 C 446.58 -0.78 445.59 -0.42 444.6 0 L 458.97 0 L 460.68 -3.42 C 459.39 -2.31 458.01 -0.6 454.89 -0.6 L 449.58 -0.6 L 449.58 -10.2 L 453.54 -10.2 C 455.49 -10.2 455.85 -9.21 456.27 -8.22 L 456.27 -12.78 C 455.85 -11.79 455.49 -10.8 453.54 -10.8 L 449.58 -10.8 L 449.58 -20.4 L 455.19 -20.4 C 458.1 -20.4 458.64 -18.93 459.27 -17.43 L 459.27 -21 L 444.6 -21 C 445.59 -20.58 446.58 -20.22 446.58 -18.27 Z" stroke-linecap="round" />
</g>
</g>
</g>
<g transform="matrix(1.9211538461538462 0 0 1.9211538461538462 641.4447076923077 411.1837309915448)" id="tagline-979fc98d-13ec-43c6-9b67-b1a637391efc-logo"  >
<g style=""  paint-order="stroke"   >
		<g transform="matrix(1 0 0 1 0 0)" id="tagline-979fc98d-13ec-43c6-9b67-b1a637391efc-logo-path-0"  >
<filter id="SVGID_567237" y="-21.385932610087014%" height="142.77186522017402%" x="-26.083700170460016%" width="152.16740034092004%" >
	<feGaussianBlur in="SourceAlpha" stdDeviation="0"></feGaussianBlur>
	<feOffset dx="2.7279311564342716" dy="0.9093103854780905" result="oBlur" ></feOffset>
	<feFlood flood-color="rgb(179,135,48)" flood-opacity="1"/>
	<feComposite in2="oBlur" operator="in" />
	<feMerge>
		<feMergeNode></feMergeNode>
		<feMergeNode in="SourceGraphic"></feMergeNode>
	</feMerge>
</filter>
<path style="stroke: rgb(128,198,244); stroke-width: 1.818620770956181; stroke-dasharray: none; stroke-linecap: butt; stroke-dashoffset: 0; stroke-linejoin: miter; stroke-miterlimit: 4; fill: rgb(255,255,255); fill-rule: nonzero; opacity: 1;filter: url(#SVGID_567237);"  paint-order="stroke"  transform=" translate(-24.96, 32.805)" d="M 3.01 -64.67 C 4.61 -64.67 6.39 -63.54 6.39 -60.91 L 6.39 -4.7 C 6.39 -2.07 4.61 -0.94 3.01 -0.94 C 2.82 -0.94 2.54 -0.85 2.54 -0.47 C 2.54 -0.09 2.82 0 3.01 0 L 47.38 0 L 47.38 -7.14 C 47.38 -7.33 47.28 -7.61 46.91 -7.61 C 46.53 -7.61 46.44 -7.33 46.44 -7.14 C 46.44 -5.55 45.31 -3.76 42.68 -3.76 L 19.46 -3.76 L 19.46 -32.9 L 31.4 -32.9 C 34.03 -32.9 35.16 -31.11 35.16 -29.52 C 35.16 -29.33 35.25 -29.05 35.63 -29.05 C 36 -29.05 36.1 -29.33 36.1 -29.52 L 36.1 -40.04 C 36.1 -40.23 36 -40.51 35.63 -40.51 C 35.25 -40.51 35.16 -40.23 35.16 -40.04 C 35.16 -38.45 34.03 -36.66 31.4 -36.66 L 19.46 -36.66 L 19.46 -61.85 L 40.8 -61.85 C 43.43 -61.85 44.56 -60.07 44.56 -58.47 C 44.56 -58.28 44.65 -58 45.03 -58 C 45.4 -58 45.5 -58.28 45.5 -58.47 L 45.5 -65.61 L 3.01 -65.61 C 2.82 -65.61 2.54 -65.52 2.54 -65.14 C 2.54 -64.77 2.82 -64.67 3.01 -64.67 Z" stroke-linecap="round" />
</g>
</g>
</g>
</svg>